<?xml version="1.0" encoding="UTF-8"?>
<svg version="1.1" xmlns="http://www.w3.org/2000/svg" width="461" height="345">
<path d="M0 0 C0.70850098 0.18804199 1.41700195 0.37608398 2.14697266 0.56982422 C19.95470048 5.50137607 35.92603837 14.07458433 50 26 C50.81726563 26.66644531 51.63453125 27.33289063 52.4765625 28.01953125 C64.43518511 38.10833486 74.31047441 51.88583611 81 66 C81 66.66 81 67.32 81 68 C82.7325 67.505 82.7325 67.505 84.5 67 C89.13065854 65.9791839 93.65104233 65.7101931 98.375 65.625 C99.07689453 65.59921875 99.77878906 65.5734375 100.50195312 65.546875 C103.75747442 65.53429328 105.52841313 65.56576654 107.97265625 67.81640625 C109.60621039 71.28848521 109.05201049 73.34890478 108 77 C104.17506023 83.69000872 97.71654153 86.73733837 91 90 C91.14383922 91.52102323 91.29019014 93.04180897 91.4375 94.5625 C91.55931641 95.83287109 91.55931641 95.83287109 91.68359375 97.12890625 C91.900272 99.09506074 92.18242705 101.05478499 92.51953125 103.00390625 C94.99361137 120.10874373 93.60030504 138.46489096 89.171875 155.11328125 C88.93845111 159.03374151 90.22000792 160.32227172 92.6875 163.3125 C98.64623276 171.0452863 101.44763696 176.75885291 101.43359375 186.6171875 C100.92291544 189.42361784 100.28403694 190.3325458 98 192 C91.88316097 193.12350105 88.27842096 190.7327028 83.33203125 187.5078125 C81.2682192 186.17342146 79.21825388 185.05048345 77 184 C76.48953125 184.77601563 75.9790625 185.55203125 75.453125 186.3515625 C55.61088075 215.83347861 28.55297504 236.1962095 -6.68896484 243.56201172 C-39.68466757 249.68892621 -73.48615796 242.74341664 -101.10546875 223.87890625 C-111.25725968 216.51130636 -120.34207871 208.45667036 -128.125 198.625 C-128.58656494 198.04210205 -129.04812988 197.4592041 -129.52368164 196.85864258 C-131.93149976 193.71184055 -133.74503547 190.7648936 -135 187 C-135.58007812 187.37253906 -136.16015625 187.74507812 -136.7578125 188.12890625 C-143.14986376 192 -143.14986376 192 -147.3125 192 C-150.11735966 190.95633129 -151.91940341 190.15765572 -154 188 C-155.7164176 183.9950256 -154.60575223 181.03506224 -153.046875 177.09375 C-151.94803281 174.89606563 -150.61195804 173.13813313 -149.125 171.1875 C-147.58118098 168.77673155 -146.94616032 167.59325227 -147.20703125 164.71875 C-148.05462897 161.78161993 -149.02711873 158.89808997 -150 156 C-153.44394361 144.1887286 -154.38289401 132.74922479 -154.375 120.5 C-154.37672211 119.8142691 -154.37844421 119.12853821 -154.38021851 118.42202759 C-154.37804765 110.78462639 -154.04063549 103.6086299 -152.19238281 96.17871094 C-151.79363637 93.98648176 -151.79363637 93.98648176 -152.97167969 92.25097656 C-154.30489295 90.82498576 -155.65208463 89.41210181 -157 88 C-157.47320213 84.51013427 -157.67377399 82.26332622 -156 79.125 C-152.8045594 77.32756466 -149.63526893 77.29797286 -146 77 C-145.90589844 76.32839844 -145.81179687 75.65679687 -145.71484375 74.96484375 C-139.4660161 49.04757496 -115.37775217 26.57909712 -93.5625 13.1875 C-66.21689101 -2.93587414 -30.76368966 -8.21415269 0 0 Z " fill="#FCFCFC" transform="translate(257,3)"/>
<path d="M0 0 C0.70850098 0.18804199 1.41700195 0.37608398 2.14697266 0.56982422 C19.95470048 5.50137607 35.92603837 14.07458433 50 26 C50.81726563 26.66644531 51.63453125 27.33289063 52.4765625 28.01953125 C58.44270321 33.05282178 63.26613692 38.81291057 68 45 C68.61875 45.80308594 69.2375 46.60617188 69.875 47.43359375 C74.8350066 54.17610272 78.42753561 61.46416327 82 69 C74.49097035 72.11631321 66.86943453 74.87088345 59.18505859 77.51928711 C57.23739225 78.1918537 55.29253307 78.8721495 53.34765625 79.55273438 C52.10371094 79.98263672 50.85976563 80.41253906 49.578125 80.85546875 C48.45825195 81.24371826 47.33837891 81.63196777 46.18457031 82.03198242 C37.55463058 84.65523534 27.26301884 85.96172282 18.875 82.0625 C13.06049371 78.72245189 8.02780414 74.4056586 3 70 C2.17628906 69.28714844 1.35257813 68.57429688 0.50390625 67.83984375 C-3.67915545 64.15205656 -7.67680731 60.33829351 -11.56616211 56.34570312 C-19.41764686 47.70828687 -19.41764686 47.70828687 -29.9375 43.75 C-38.13495937 47.09590178 -44.49738907 54.25042026 -50.5625 60.5 C-55.30545153 65.3603298 -60.08908643 70.05574025 -65.24291992 74.48144531 C-67.34751742 76.30034158 -69.35316688 78.21504697 -71.375 80.125 C-79.05555503 86.85039231 -85.70643808 89.87996447 -96.046875 89.48828125 C-103.05381904 88.62279903 -109.730871 86.6945476 -116.49609375 84.72314453 C-120.7107104 83.50593563 -124.94821023 82.37760846 -129.1875 81.25 C-130.33545044 80.93446167 -130.33545044 80.93446167 -131.5065918 80.61254883 C-136.33430645 79.31671368 -141.02677212 78.51816191 -146 78 C-145.43767649 73.00841597 -143.81737677 68.93433778 -141.5625 64.5 C-141.20833008 63.80221436 -140.85416016 63.10442871 -140.48925781 62.38549805 C-126.0740113 34.79586643 -100.72231917 12.59343091 -71 3 C-48.12566687 -3.91156773 -23.36665959 -6.23908614 0 0 Z " fill="#224599" transform="translate(257,3)"/>
<path d="M0 0 C2.375 0.25 2.375 0.25 5 1 C7.67597945 5.16827581 7.48043677 9.21025006 7 14 C6.3199984 17.0085126 5.30885043 19.8173399 4.1875 22.6875 C3.88634277 23.48478516 3.58518555 24.28207031 3.27490234 25.10351562 C-0.47284248 34.6956716 -5.21550391 43.82710115 -9.98779297 52.94140625 C-11.58921629 56.19832892 -12.15725192 58.85007788 -12.1875 62.4375 C-12.20167969 63.19933594 -12.21585937 63.96117187 -12.23046875 64.74609375 C-11.97612666 67.23347315 -11.24017196 68.84808106 -10 71 C-8.62605116 71.08243693 -7.25059402 71.1398309 -5.875 71.1875 C-5.10929687 71.22230469 -4.34359375 71.25710937 -3.5546875 71.29296875 C-0.13386614 70.90067272 2.0857515 69.82436695 5 68 C10.01677602 61.20644913 12.39958705 52.34641441 14.73242188 44.32006836 C16.30656303 39.16725112 18.19758099 35.8558071 22 32 C25 30.75 25 30.75 28 31 C34.30212571 36.40182204 36.05356748 44.57757029 38.21875 52.31640625 C38.43144531 53.06881592 38.64414063 53.82122559 38.86328125 54.59643555 C39.27934718 56.08537087 39.68353449 57.57769053 40.07421875 59.07348633 C41.29419264 63.48821567 42.63626315 66.71242323 46 70 C49.58500409 70.66707548 49.58500409 70.66707548 53 70 C56.67274154 64.49088768 55.5813868 56.46830867 55 50 C53.48540428 42.542054 49.50658752 35.88763205 45.81835938 29.30029297 C42.99336449 24.22863789 40.41414333 19.54198536 41.25 13.625 C41.35699219 12.86574219 41.46398437 12.10648438 41.57421875 11.32421875 C42.21470575 7.82798237 43.06476936 4.42917901 44 1 C45.65 0.67 47.3 0.34 49 0 C51.40656056 3.64490415 52.64899153 6.84321544 53.61328125 11.09375 C53.88873779 12.2794458 54.16419434 13.4651416 54.44799805 14.68676758 C54.73328369 15.94513428 55.01856934 17.20350098 55.3125 18.5 C55.92335274 21.1199981 56.54277163 23.73792824 57.1640625 26.35546875 C57.31822128 27.00666183 57.47238007 27.65785492 57.63121033 28.32878113 C59.02772224 34.1921819 60.55175734 40.01164727 62.1875 45.8125 C62.41284424 46.63363281 62.63818848 47.45476562 62.87036133 48.30078125 C65.09370443 56.0481837 67.7977559 62.61384065 74 68 C76.52475462 69.26237731 78.31200466 69.09856404 81.125 69.0625 C82.03507813 69.05347656 82.94515625 69.04445313 83.8828125 69.03515625 C84.58148438 69.02355469 85.28015625 69.01195312 86 69 C89.3838767 58.8483699 85.49924874 46.91684115 83.5 36.75 C82.99666503 34.16914148 82.49611795 31.58784205 82.0020752 29.00518799 C81.69617868 27.4080148 81.38487555 25.81186422 81.06726074 24.21697998 C80.27478411 20.10004226 79.66954017 16.21386108 80 12 C81.9989689 9.84550492 83.40533951 9.13248912 86.26171875 8.49609375 C93.56695499 8.31963877 97.44659256 10.42057479 103 15 C103.52110352 15.42925781 104.04220703 15.85851562 104.57910156 16.30078125 C111.8110554 22.29780979 118.80105845 28.56055409 125.6953125 34.94140625 C127.72731176 36.75642931 129.79173877 38.40740607 132 40 C128.68811517 57.15083216 108.4968718 73.66801417 94.890625 83.171875 C66.51604982 101.38242325 32.81580603 109.11757232 -0.625 102.4375 C-32.079374 95.44406483 -59.52152704 77.46573742 -78 51 C-79.0458136 49.02357041 -80.06315222 47.0303488 -81 45 C-74.71455065 39.23265711 -68.29499396 33.69439148 -61.65429688 28.34082031 C-59.73583954 26.78589592 -57.8287669 25.217522 -55.921875 23.6484375 C-54.48962476 22.47390781 -53.05733323 21.29942848 -51.625 20.125 C-50.60768799 19.28533691 -50.60768799 19.28533691 -49.56982422 18.42871094 C-40.68064737 11.16476935 -40.68064737 11.16476935 -35.8125 10.6875 C-33 11 -33 11 -31 13 C-30.21267154 22.1526933 -32.5988261 31.07758253 -34.43652344 39.99267578 C-37.56265565 54.4624159 -37.56265565 54.4624159 -36 69 C-29.90059045 69.42064893 -26.86336347 69.08964656 -22 65 C-10.97670232 52.73764948 -8.57993486 30.71399823 -5.19360352 15.06152344 C-3.98912903 9.63997599 -2.84516748 4.79541581 0 0 Z " fill="#224699" transform="translate(202,144)"/>
<path d="M0 0 C2.22683965 1.19445197 2.22683965 1.19445197 4.265625 0.0859375 C4.92691406 -0.30335937 5.58820313 -0.69265625 6.26953125 -1.09375 C11.1532267 -1.78681569 15.12974324 -1.65289129 19.58203125 0.53125 C23.81762615 4.27433387 28.02151733 8.01097254 28.40234375 13.9921875 C28.39976562 14.74757813 28.3971875 15.50296875 28.39453125 16.28125 C28.39710938 17.03148438 28.3996875 17.78171875 28.40234375 18.5546875 C28.26953125 20.90625 28.26953125 20.90625 27.546875 23.34375 C27.14946141 27.01562764 28.60975473 28.56317445 30.70703125 31.53125 C34.26953125 36.62053571 34.26953125 36.62053571 34.26953125 39.90625 C32.396531 40.55786012 30.52102575 41.20227195 28.64453125 41.84375 C27.60039062 42.20339844 26.55625 42.56304687 25.48046875 42.93359375 C16.83274367 45.55316011 6.55185593 46.87694725 -1.85546875 42.96875 C-7.66997504 39.62870189 -12.70266461 35.3119086 -17.73046875 30.90625 C-18.55417969 30.19339844 -19.37789063 29.48054688 -20.2265625 28.74609375 C-24.4096242 25.05830656 -28.40727606 21.24454351 -32.29663086 17.25195312 C-40.14811561 8.61453687 -40.14811561 8.61453687 -50.66796875 4.65625 C-53.70895302 5.89746807 -55.37143959 7.18521103 -57.85546875 9.28125 C-61.31261636 12.12865111 -63.91016919 13.44578157 -68.29296875 14.34375 C-76.10096897 16.02191736 -84.42628419 18.82177495 -90.73046875 23.90625 C-92.36338019 26.7387696 -93.08283662 29.17537789 -93.83984375 32.33984375 C-95.22534145 36.33226474 -97.71089875 37.90683188 -101.29296875 39.9453125 C-106.46828317 41.98558068 -110.72199027 41.57574283 -115.91796875 39.84375 C-120.3867333 36.76526775 -123.99771706 33.10450506 -125.73046875 27.90625 C-126.23489114 22.6387572 -126.40213465 18.27445832 -124.04296875 13.46875 C-120.57209631 9.62264811 -117.93070401 7.33858605 -113 5.5625 C-108.85234682 4.04804533 -105.36459505 1.97754631 -101.66796875 -0.40625 C-70.80791534 -19.59354395 -30.75226112 -19.27330651 0 0 Z " fill="#C20464" transform="translate(277.73046875,42.09375)"/>
<path d="M0 0 C2.625 1.0625 2.625 1.0625 4.11328125 4.3984375 C5.96790055 9.74532873 7.18128864 15.2384259 8.4375 20.75 C10.39327931 29.08516911 12.43430977 37.3819174 14.75 45.625 C14.97921143 46.46184326 15.20842285 47.29868652 15.44458008 48.16088867 C16.79226839 52.87134376 18.47223387 57.06263442 20.85107422 61.35131836 C21.625 63.0625 21.625 63.0625 21.625 66.0625 C-0.69719001 75.37094361 -25.60373777 81.00200707 -49.375 73.0625 C-48.375 71.0625 -48.375 71.0625 -45.5 69.75390625 C-37.91380695 65.64787926 -35.76673186 54.49721639 -33.3125 46.6875 C-33.09142578 45.92687256 -32.87035156 45.16624512 -32.64257812 44.38256836 C-31.06843697 39.22975112 -29.17741901 35.9183071 -25.375 32.0625 C-22.375 30.8125 -22.375 30.8125 -19.375 31.0625 C-13.07287429 36.46432204 -11.32143252 44.64007029 -9.15625 52.37890625 C-8.94355469 53.13131592 -8.73085937 53.88372559 -8.51171875 54.65893555 C-8.09565282 56.14787087 -7.69146551 57.64019053 -7.30078125 59.13598633 C-6.08080736 63.55071567 -4.73873685 66.77492323 -1.375 70.0625 C2.21000409 70.72957548 2.21000409 70.72957548 5.625 70.0625 C9.29774154 64.55338768 8.2063868 56.53080867 7.625 50.0625 C6.11040428 42.604554 2.13158752 35.95013205 -1.55664062 29.36279297 C-6.60632726 20.29719465 -6.69481832 14.36900473 -4.375 4.5625 C-3.09469697 0.08143939 -3.09469697 0.08143939 0 0 Z " fill="#C30665" transform="translate(249.375,143.9375)"/>
<path d="M0 0 C7.56365568 3.38139901 14.4769443 7.43517247 21.375 12 C22.13538574 12.49790039 22.89577148 12.99580078 23.67919922 13.50878906 C35.22891814 21.26959029 35.22891814 21.26959029 36.57446289 26.03417969 C37.54739089 34.06906817 32.36469202 42.37523487 27.78222656 48.67382812 C25.17018853 52.00042369 22.37223507 55.151649 19.53515625 58.28662109 C16.7356337 61.41115183 14.03310038 64.61933373 11.3125 67.8125 C10.28834398 69.007011 9.26365818 70.20106812 8.23828125 71.39453125 C7.13033203 72.68423828 7.13033203 72.68423828 6 74 C3.17408145 71.17408145 2.57081285 67.81034497 1.5 64.0625 C1.28730469 63.35287109 1.07460937 62.64324219 0.85546875 61.91210938 C-2.23256894 51.29342762 -3.32777589 41.15278655 -3.26074219 30.10253906 C-3.25001513 28.00296157 -3.26070107 25.90423931 -3.2734375 23.8046875 C-3.28117159 16.07788089 -3.03359688 8.50053913 -1 1 C-0.67 0.67 -0.34 0.34 0 0 Z " fill="#234699" transform="translate(106,96)"/>
<path d="M0 0 C5.24400818 21.8500341 5.50754206 46.65246735 -2 68 C-34.00187378 36.3485117 -34.00187378 36.3485117 -34.625 24.1875 C-34.57841442 20.04914796 -32.80710143 17.95117452 -30 15 C-27.0390625 13.0078125 -27.0390625 13.0078125 -23.625 11.125 C-23.02010742 10.78984375 -22.41521484 10.4546875 -21.79199219 10.109375 C-3.36898643 0 -3.36898643 0 0 0 Z " fill="#23469A" transform="translate(347,93)"/>
<path d="M0 0 C4.95 0 9.9 0 15 0 C16.32 8.91 17.64 17.82 19 27 C19.33 18.09 19.66 9.18 20 0 C22.97 0 25.94 0 29 0 C29.99 2.64 30.98 5.28 32 8 C32.33 5.36 32.66 2.72 33 0 C35.97 0 38.94 0 42 0 C42 11.88 42 23.76 42 36 C39.03 36 36.06 36 33 36 C32.01 33.69 31.02 31.38 30 29 C29.67 31.31 29.34 33.62 29 36 C22.4 36 15.8 36 9 36 C9 33.69 9 31.38 9 29 C8.01 29 7.02 29 6 29 C6 31.31 6 33.62 6 36 C2.7 36 -0.6 36 -4 36 C-3.50734206 23.83644532 -1.95616203 12.00763611 0 0 Z M7 13 C7 15.97 7 18.94 7 22 C7.33 22 7.66 22 8 22 C8 19.03 8 16.06 8 13 C7.67 13 7.34 13 7 13 Z " fill="#272728" transform="translate(276,309)"/>
<path d="M0 0 C0.66 0 1.32 0 2 0 C7.1094716 8.95204553 12.11154826 17.91831824 16.5 27.25 C16.82548828 27.93956787 17.15097656 28.62913574 17.48632812 29.33959961 C20.60823579 36.08799078 22.25726533 41.53930538 22 49 C15.07873185 52.82080372 6.5408485 52.22474434 -1.1875 52.3125 C-2.05052734 52.34150391 -2.91355469 52.37050781 -3.80273438 52.40039062 C-9.52391599 52.45729603 -12.62330146 51.76242506 -17 48 C-19.30948554 43.38102893 -18.46720406 38.56436771 -17.046875 33.80859375 C-6.68616785 6.68616785 -6.68616785 6.68616785 0 0 Z " fill="#559F08" transform="translate(226,73)"/>
<path d="M0 0 C8.91 0 17.82 0 27 0 C28.70778343 3.41556686 28.62287908 7.22879083 29 11 C29.66 7.37 30.32 3.74 31 0 C34.3 0 37.6 0 41 0 C40.45963968 12.13015749 38.83215687 24.00455783 37 36 C32.05 36 27.1 36 22 36 C21.80664062 34.90042969 21.61328125 33.80085938 21.4140625 32.66796875 C19.96575757 24.44103793 18.50837034 16.21618198 17 8 C14.69 8 12.38 8 10 8 C10 9.65 10 11.3 10 13 C11.98 13 13.96 13 16 13 C16 15.64 16 18.28 16 21 C14.02 21 12.04 21 10 21 C10 23.31 10 25.62 10 28 C12.31 28 14.62 28 17 28 C17 30.64 17 33.28 17 36 C11.39 36 5.78 36 0 36 C0 24.12 0 12.24 0 0 Z " fill="#272728" transform="translate(96,309)"/>
<path d="M0 0 C4.87679522 2.39239011 7.80955604 5.71568955 11 10 C12.58935702 14.76807106 13.05509789 19.50454026 11.05859375 24.2265625 C8.04354063 29.27370471 4.7113186 33.09622713 -1 35 C-6.92375049 35.5969671 -11.84466444 35.20992591 -17 32 C-20.72365138 28.02096545 -23.34666398 23.97542693 -23.625 18.4375 C-23.17275538 12.4215948 -20.84607834 7.75377442 -16.5 3.625 C-10.91632094 -0.00439139 -6.65495517 -0.84373441 0 0 Z " fill="#F9F8F9" transform="translate(294,41)"/>
<path d="M0 0 C4.05523038 2.85709413 7.51585617 6.46921234 9.75 10.9375 C10.51108902 17.65005559 10.02073146 23.51186652 5.75 28.9375 C1.97103884 32.4434888 -1.70128228 34.22810839 -6.875 34.4375 C-12.87806618 34.03592267 -16.59420636 31.88537415 -20.5625 27.4375 C-24.44232826 22.79392602 -24.59334823 18.54786978 -24.53125 12.6640625 C-24.00219782 7.5351955 -21.35337553 4.9095213 -17.625 1.625 C-12.24342122 -2.19875334 -6.19049534 -2.02381578 0 0 Z " fill="#FAFAFA" transform="translate(176.25,49.0625)"/>
<path d="M0 0 C6.46516977 3.00358793 11.79925983 8.2102175 17 13 C11.19564994 24.77386455 3.59609654 35.02973584 -6 44 C-8.30991773 40.5351234 -8.74300474 38.00316767 -9.5078125 33.91796875 C-9.63815887 33.2261702 -9.76850525 32.53437164 -9.90280151 31.8216095 C-10.17668184 30.3588307 -10.44711987 28.89540378 -10.71435547 27.43139648 C-11.12191128 25.20437776 -11.54251307 22.98011784 -11.96484375 20.75585938 C-12.22995379 19.33087538 -12.49430137 17.90574928 -12.7578125 16.48046875 C-12.9964502 15.19035889 -13.23508789 13.90024902 -13.48095703 12.57104492 C-13.95777578 9.29050501 -14.23014262 6.30551862 -14 3 C-10.1267527 -1.17459835 -5.29986629 -0.95225874 0 0 Z " fill="#C20565" transform="translate(296,153)"/>
<path d="M0 0 C1.93166016 0.01740234 1.93166016 0.01740234 3.90234375 0.03515625 C5.19269531 0.04417969 6.48304688 0.05320312 7.8125 0.0625 C8.81152344 0.07410156 9.81054688 0.08570313 10.83984375 0.09765625 C11.5570177 4.4201552 12.26893231 8.74347826 12.97607422 13.06762695 C13.21715735 14.53726327 13.45965355 16.00666854 13.70361328 17.47583008 C14.05486567 19.59266335 14.40095831 21.71028688 14.74609375 23.828125 C15.06030273 25.73694458 15.06030273 25.73694458 15.38085938 27.68432617 C15.83984375 31.09765625 15.83984375 31.09765625 15.83984375 36.09765625 C12.53984375 36.09765625 9.23984375 36.09765625 5.83984375 36.09765625 C5.50984375 33.78765625 5.17984375 31.47765625 4.83984375 29.09765625 C4.17984375 29.09765625 3.51984375 29.09765625 2.83984375 29.09765625 C2.83984375 31.40765625 2.83984375 33.71765625 2.83984375 36.09765625 C-3.10015625 36.09765625 -9.04015625 36.09765625 -15.16015625 36.09765625 C-15.16015625 33.45765625 -15.16015625 30.81765625 -15.16015625 28.09765625 C-12.52015625 28.09765625 -9.88015625 28.09765625 -7.16015625 28.09765625 C-7.02738281 26.81890625 -6.89460938 25.54015625 -6.7578125 24.22265625 C-6.57946955 22.51431848 -6.40108174 20.8059854 -6.22265625 19.09765625 C-6.09213867 17.83888672 -6.09213867 17.83888672 -5.95898438 16.5546875 C-5.69878236 14.06831268 -5.43147552 11.58284118 -5.16015625 9.09765625 C-5.07620605 8.31390625 -4.99225586 7.53015625 -4.90576172 6.72265625 C-4.15359934 0.12835597 -4.15359934 0.12835597 0 0 Z M2.83984375 18.09765625 C2.83984375 19.41765625 2.83984375 20.73765625 2.83984375 22.09765625 C3.49984375 22.09765625 4.15984375 22.09765625 4.83984375 22.09765625 C4.83984375 20.77765625 4.83984375 19.45765625 4.83984375 18.09765625 C4.17984375 18.09765625 3.51984375 18.09765625 2.83984375 18.09765625 Z " fill="#272728" transform="translate(406.16015625,308.90234375)"/>
<path d="M0 0 C2.97 0 5.94 0 9 0 C9.99 2.97 10.98 5.94 12 9 C12.33 6.03 12.66 3.06 13 0 C15.64 0 18.28 0 21 0 C21 11.88 21 23.76 21 36 C18.03 36 15.06 36 12 36 C11.34 33.69 10.68 31.38 10 29 C9.67 31.31 9.34 33.62 9 36 C6.03 36 3.06 36 0 36 C0 24.12 0 12.24 0 0 Z " fill="#272728" transform="translate(48,309)"/>
<path d="M0 0 C3.3 0 6.6 0 10 0 C10.33 9.24 10.66 18.48 11 28 C11.33 18.76 11.66 9.52 12 0 C15.3 0 18.6 0 22 0 C22.04953687 4.19920237 22.08578411 8.39824869 22.10986328 12.59765625 C22.11990427 14.02542078 22.13353981 15.45316483 22.15087891 16.88085938 C22.17521152 18.93624941 22.18650202 20.99136692 22.1953125 23.046875 C22.20578613 24.28276367 22.21625977 25.51865234 22.22705078 26.79199219 C22.00943993 29.86662287 21.73995508 31.497414 20 34 C16.60877363 36.26081758 15.12622394 36.35268603 11.125 36.4375 C9.58199219 36.49744141 9.58199219 36.49744141 8.0078125 36.55859375 C3.89479665 35.79474795 2.5977174 34.23746792 0 31 C-0.56762695 27.58666992 -0.56762695 27.58666992 -0.48828125 23.73046875 C-0.48120651 23.04946609 -0.47413177 22.36846344 -0.46684265 21.66682434 C-0.43900069 19.50590005 -0.37629527 17.34763178 -0.3125 15.1875 C-0.28740332 13.71683448 -0.26459253 12.24612807 -0.24414062 10.77539062 C-0.18921188 7.18274043 -0.10301647 3.59162972 0 0 Z " fill="#272728" transform="translate(72,309)"/>
<path d="M0 0 C5.61 0 11.22 0 17 0 C21 4 21 4 21.390625 6.65625 C21.32101562 8.06390625 21.32101562 8.06390625 21.25 9.5 C21.21390625 10.4384375 21.1778125 11.376875 21.140625 12.34375 C21.07101562 13.65859375 21.07101562 13.65859375 21 15 C21 16.32 21 17.64 21 19 C21 24.66666667 21 30.33333333 21 36 C18.03 36 15.06 36 12 36 C11.67 31.05 11.34 26.1 11 21 C10.67 25.95 10.34 30.9 10 36 C6.7 36 3.4 36 0 36 C0 24.12 0 12.24 0 0 Z M10 7 C10 8.98 10 10.96 10 13 C10.66 12.67 11.32 12.34 12 12 C11.67 10.35 11.34 8.7 11 7 C10.67 7 10.34 7 10 7 Z " fill="#272728" transform="translate(250,309)"/>
<path d="M0 0 C2 2 2 2 2.3125 5.58984375 C2.14598229 13.01028904 0.43271104 20.30359101 -1 27.5625 C-1.28982407 29.06300414 -1.57889293 30.56365436 -1.8671875 32.06445312 C-2.56942282 35.71136129 -3.28186879 39.35618444 -4 43 C-12.48233284 35.92559846 -20.83238601 27.90965978 -26 18 C-26 17.01 -26 16.02 -26 15 C-23.8336394 13.05621069 -21.69403189 11.30527346 -19.375 9.5625 C-18.75753906 9.08490234 -18.14007813 8.60730469 -17.50390625 8.11523438 C-5.88306067 -0.80223555 -5.88306067 -0.80223555 0 0 Z " fill="#C30565" transform="translate(169,155)"/>
<path d="M0 0 C4.95 0 9.9 0 15 0 C16.65 11.88 18.3 23.76 20 36 C16.37 36 12.74 36 9 36 C9 33.69 9 31.38 9 29 C8.34 29.33 7.68 29.66 7 30 C6.34227572 33.02934491 6.34227572 33.02934491 6 36 C2.7 36 -0.6 36 -4 36 C-4.30840807 28.36690031 -3.13339612 21.03555259 -2 13.5 C-1.80921875 12.200625 -1.6184375 10.90125 -1.421875 9.5625 C-0.95301415 6.37424621 -0.4772003 3.18701626 0 0 Z M7 14 C7 16.64 7 19.28 7 22 C7.33 22 7.66 22 8 22 C8 19.36 8 16.72 8 14 C7.67 14 7.34 14 7 14 Z " fill="#272728" transform="translate(341,309)"/>
<path d="M0 0 C4.95 0 9.9 0 15 0 C16.65 11.88 18.3 23.76 20 36 C16.37 36 12.74 36 9 36 C9 33.69 9 31.38 9 29 C8.34 29.33 7.68 29.66 7 30 C6.34227572 33.02934491 6.34227572 33.02934491 6 36 C2.7 36 -0.6 36 -4 36 C-4.30840807 28.36690031 -3.13339612 21.03555259 -2 13.5 C-1.80921875 12.200625 -1.6184375 10.90125 -1.421875 9.5625 C-0.95301415 6.37424621 -0.4772003 3.18701626 0 0 Z M7 14 C7 16.64 7 19.28 7 22 C7.33 22 7.66 22 8 22 C8 19.36 8 16.72 8 14 C7.67 14 7.34 14 7 14 Z " fill="#272728" transform="translate(20,309)"/>
<path d="M0 0 C4.62 0 9.24 0 14 0 C15.47519734 6.34976246 16.66342826 12.67854456 17.625 19.125 C17.7590625 19.97964844 17.893125 20.83429688 18.03125 21.71484375 C18.75724673 26.53753634 19.14536232 31.12375499 19 36 C15.7 36 12.4 36 9 36 C9 33.69 9 31.38 9 29 C8.01 29 7.02 29 6 29 C6 31.31 6 33.62 6 36 C2.37 36 -1.26 36 -5 36 C-4.54596038 32.061963 -4.08688416 28.12461836 -3.625 24.1875 C-3.49867188 23.08728516 -3.37234375 21.98707031 -3.2421875 20.85351562 C-2.41460066 13.83971718 -1.33271436 6.9359091 0 0 Z M7 15 C6.67 17.31 6.34 19.62 6 22 C6.66 22 7.32 22 8 22 C8 19.69 8 17.38 8 15 C7.67 15 7.34 15 7 15 Z " fill="#272728" transform="translate(140,309)"/>
<path d="M0 0 C2.41869578 1.1589584 4.12322096 2.12322096 6 4 C6.14115161 6.67058851 6.04247107 9.32432238 6 12 C3.03 12 0.06 12 -3 12 C-3 10.35 -3 8.7 -3 7 C-3.66 7 -4.32 7 -5 7 C-4.69444679 10.16810435 -4.50148535 11.58291335 -2.00390625 13.66015625 C-1.19824219 14.12292969 -0.39257812 14.58570313 0.4375 15.0625 C3.80793788 17.01551457 5.69425768 18.26145355 7 22 C7.76022144 26.9214335 7.70900793 30.77757253 5.1875 35.125 C0.4791362 37.89462577 -3.6719553 37.82400691 -9 37 C-12.125 35.625 -12.125 35.625 -14 33 C-14.68483386 29.66470225 -14.92862415 26.4000861 -15 23 C-11.535 22.505 -11.535 22.505 -8 22 C-8.78375 21.4225 -9.5675 20.845 -10.375 20.25 C-13.42576418 17.63505928 -14.79221947 16.13969739 -15.18359375 12.109375 C-15.30205834 8.34638203 -15.38242841 5.09715693 -13 2 C-8.76934825 -0.5420619 -4.81599747 -0.58375727 0 0 Z M-5 24 C-5 25.98 -5 27.96 -5 30 C-4.34 30 -3.68 30 -3 30 C-3 28.35 -3 26.7 -3 25 C-3.66 24.67 -4.32 24.34 -5 24 Z " fill="#262627" transform="translate(446,308)"/>
<path d="M0 0 C2.41869578 1.1589584 4.12322096 2.12322096 6 4 C6.14115161 6.67058851 6.04247107 9.32432238 6 12 C3.36 12.33 0.72 12.66 -2 13 C-1.43410156 13.39832031 -0.86820312 13.79664063 -0.28515625 14.20703125 C0.81505859 15.00173828 0.81505859 15.00173828 1.9375 15.8125 C2.66839844 16.33457031 3.39929688 16.85664063 4.15234375 17.39453125 C6.53357484 19.4636348 6.90800278 21.22459486 7.2734375 24.3046875 C7.44560518 28.66185426 7.41281533 31.28824943 5.1875 35.125 C0.47846607 37.89501996 -3.67148045 37.82284485 -9 37 C-12.1875 35.625 -12.1875 35.625 -14 33 C-14.39155425 29.62416743 -14.29033543 26.38079474 -14 23 C-12.02 22.67 -10.04 22.34 -8 22 C-8.78375 21.443125 -9.5675 20.88625 -10.375 20.3125 C-13.24553506 17.7836953 -14.17758503 16.70086738 -15 13 C-14.98621421 5.18345705 -14.98621421 5.18345705 -12.57421875 2.2890625 C-8.79624688 -0.8045621 -4.68220167 -0.47711554 0 0 Z M-5 7 C-5 8.65 -5 10.3 -5 12 C-4.34 12 -3.68 12 -3 12 C-3 10.35 -3 8.7 -3 7 C-3.66 7 -4.32 7 -5 7 Z M-5 24 C-5 25.98 -5 27.96 -5 30 C-4.34 30 -3.68 30 -3 30 C-3 28.35 -3 26.7 -3 25 C-3.66 24.67 -4.32 24.34 -5 24 Z " fill="#272728" transform="translate(383,308)"/>
<path d="M0 0 C3.125 1.5 3.125 1.5 5 4 C5.40107634 6.80218669 5.23797526 9.14429693 5 12 C2.36 12.33 -0.28 12.66 -3 13 C-2.15115234 13.61488281 -2.15115234 13.61488281 -1.28515625 14.2421875 C-0.55167969 14.78101563 0.18179688 15.31984375 0.9375 15.875 C1.66839844 16.40867187 2.39929688 16.94234375 3.15234375 17.4921875 C5.61521272 19.5020552 5.95029797 20.51292014 6.2734375 23.6796875 C6.54347302 32.17542025 6.54347302 32.17542025 4.1875 35.75 C-1.63910634 38.03494366 -7.42461216 38.11095162 -13.1875 35.625 C-15.9555023 31.61616908 -15.40568667 27.72399586 -15 23 C-11.535 22.505 -11.535 22.505 -8 22 C-8.94875 21.46375 -9.8975 20.9275 -10.875 20.375 C-14.49352178 17.62492345 -15.23407681 16.425334 -16 12 C-16.127164 7.88306537 -15.65233187 4.84171854 -13.0625 1.5 C-8.6566401 -0.65797219 -4.81500396 -0.75777112 0 0 Z M-6 7 C-5.67 8.65 -5.34 10.3 -5 12 C-4.67 12 -4.34 12 -4 12 C-4 10.35 -4 8.7 -4 7 C-4.66 7 -5.32 7 -6 7 Z M-6 24 C-6 25.98 -6 27.96 -6 30 C-5.01 29.67 -4.02 29.34 -3 29 C-3.33 27.35 -3.66 25.7 -4 24 C-4.66 24 -5.32 24 -6 24 Z " fill="#262627" transform="translate(201,308)"/>
<path d="M0 0 C5.61 0 11.22 0 17 0 C21.53967274 5.67459092 21.53967274 5.67459092 21.4375 11.0625 C21.43621094 12.08472656 21.43492187 13.10695313 21.43359375 14.16015625 C20.94504239 17.3599476 20.31933115 18.75902464 18 21 C15.30469001 21.8039548 12.83352598 21.81419502 10 22 C10 26.62 10 31.24 10 36 C6.7 36 3.4 36 0 36 C0 24.12 0 12.24 0 0 Z M10 7 C10 9.64 10 12.28 10 15 C10.66 14.67 11.32 14.34 12 14 C12 11.69 12 9.38 12 7 C11.34 7 10.68 7 10 7 Z " fill="#272728" transform="translate(209,309)"/>
<path d="M0 0 C3.70910097 1.78586343 5.54021301 3.36223095 7.9375 6.6875 C9.34591214 11.07843196 9.21096443 14.5652519 8 19 C5.78380806 22.59175934 3.83962753 24.3755422 0 26 C-3.99539131 26.76806044 -7.53605023 26.86098715 -11.10546875 24.76171875 C-14.67372281 21.79675713 -16.5813295 19.73460731 -17.30859375 14.984375 C-17.57869328 10.30264985 -17.21806602 7.64244271 -14.125 4 C-9.86167113 -0.448691 -5.99430951 -0.71649154 0 0 Z " fill="#F9FBF8" transform="translate(230,97)"/>
<path d="M0 0 C5.61 0 11.22 0 17 0 C17 2.64 17 5.28 17 8 C14.69 8 12.38 8 10 8 C10 9.65 10 11.3 10 13 C11.98 13 13.96 13 16 13 C16 15.64 16 18.28 16 21 C14.02 21 12.04 21 10 21 C10 23.31 10 25.62 10 28 C12.31 28 14.62 28 17 28 C17 30.64 17 33.28 17 36 C11.39 36 5.78 36 0 36 C0 24.12 0 12.24 0 0 Z " fill="#272728" transform="translate(231,309)"/>
<path d="M0 0 C5.28 0 10.56 0 16 0 C16 2.64 16 5.28 16 8 C14.02 8 12.04 8 10 8 C10 9.65 10 11.3 10 13 C11.98 13 13.96 13 16 13 C16 15.64 16 18.28 16 21 C14.02 21 12.04 21 10 21 C10 23.31 10 25.62 10 28 C12.31 28 14.62 28 17 28 C17 30.64 17 33.28 17 36 C11.39 36 5.78 36 0 36 C0 24.12 0 12.24 0 0 Z " fill="#272728" transform="translate(168,309)"/>
<path d="M0 0 C5.61 0 11.22 0 17 0 C17.88051644 10.41944455 14.75487096 18.46754486 11 28 C12.98 28 14.96 28 17 28 C17 30.64 17 33.28 17 36 C11.39 36 5.78 36 0 36 C-0.34001662 28.98007347 0.72118148 23.55325916 3 16.9375 C3.28617187 16.07189453 3.57234375 15.20628906 3.8671875 14.31445312 C4.56633434 12.20536016 5.27731053 10.10111711 6 8 C5.195625 8.020625 4.39125 8.04125 3.5625 8.0625 C1 8 1 8 0 7 C0 4.69 0 2.38 0 0 Z " fill="#262627" transform="translate(319,309)"/>
<path d="M0 0 C-6.67392589 8.07896292 -14.02512973 15.49505011 -22.01171875 22.28125 C-23.41899093 23.49775247 -24.7939947 24.75205327 -26.14453125 26.03125 C-31.98628918 31.5149317 -38.70095482 37.26154811 -47.125 37.3125 C-48.548125 37.1578125 -48.548125 37.1578125 -50 37 C-48.74522799 33.52524673 -47.67195156 30.58575957 -45 28 C-43.55828059 27.47294977 -42.09656825 26.99933369 -40.625 26.5625 C-36.20547866 25.20154529 -33.83455496 23.80640237 -31 20 C-30.55782501 18.39711566 -30.12083187 16.79279762 -29.6875 15.1875 C-27.70690163 9.64348197 -24.17892504 7.92626977 -19.125 5.5 C-6.54725649 -0.38513273 -6.54725649 -0.38513273 0 0 Z " fill="#579D0A" transform="translate(214,55)"/>
<path d="M0 0 C2.625 1.0625 2.625 1.0625 4.09375 4.34765625 C6.04631303 9.97869735 7.38511882 15.76689901 8.75 21.5625 C9.14638672 23.19638672 9.14638672 23.19638672 9.55078125 24.86328125 C10.91563963 30.59291515 12.04162526 36.20029529 12.625 42.0625 C10.645 43.0525 8.665 44.0425 6.625 45.0625 C4.82584458 41.69144144 3.03703542 38.31499694 1.25 34.9375 C0.74210938 33.98617187 0.23421875 33.03484375 -0.2890625 32.0546875 C-6.38058444 20.51285645 -6.92576517 13.49017811 -3.375 1.0625 C-2.375 0.0625 -2.375 0.0625 0 0 Z " fill="#569F0A" transform="translate(249.375,143.9375)"/>
<path d="M0 0 C3.3 0 6.6 0 10 0 C10 9.24 10 18.48 10 28 C11.65 28 13.3 28 15 28 C15 30.64 15 33.28 15 36 C10.05 36 5.1 36 0 36 C0 24.12 0 12.24 0 0 Z " fill="#272728" transform="translate(0,309)"/>
<path d="M0 0 C0.33 0 0.66 0 1 0 C1.07476562 0.56847656 1.14953125 1.13695313 1.2265625 1.72265625 C2.25917776 7.78674 4.03966491 12.16275965 9 16 C11.99822564 17.37439055 14.78314292 18.1714156 18 19 C16.35 21.97 14.7 24.94 13 28 C6.95949073 28.32784311 1.85891514 27.13093049 -3.9375 25.5 C-5.24944336 25.14228516 -5.24944336 25.14228516 -6.58789062 24.77734375 C-8.72755439 24.19273616 -10.86465572 23.60015656 -13 23 C-11.67791593 18.60832469 -9.95666227 14.88299838 -7.625 10.9375 C-7.03976563 9.93589844 -6.45453125 8.93429688 -5.8515625 7.90234375 C-4.05913313 5.0926918 -2.17593574 2.52315953 0 0 Z " fill="#C20766" transform="translate(151,64)"/>
<path d="M0 0 C2.375 0.25 2.375 0.25 5 1 C7.67260322 5.17373248 7.51448138 9.20518652 7 14 C6.21257262 17.23509321 5.09489077 20.28010955 3.875 23.375 C3.56167725 24.19846924 3.24835449 25.02193848 2.92553711 25.87036133 C0.44975097 32.22302761 -2.42996316 38.18070918 -6 44 C-7.65 43.34 -9.3 42.68 -11 42 C-9.48945711 34.21888352 -7.81414603 26.48018599 -6.0625 18.75 C-5.68448242 17.03296875 -5.68448242 17.03296875 -5.29882812 15.28125 C-4.05357763 9.80342172 -2.88052274 4.84959649 0 0 Z " fill="#569F09" transform="translate(202,144)"/>
<path d="M0 0 C16.75181372 2.59941937 30.31556156 12.69143629 40.5390625 25.8359375 C42 28 42 28 43 31 C26.84942297 30.69527213 12.42195052 13.67614626 1.6953125 2.86328125 C0 1 0 1 0 0 Z " fill="#569C09" transform="translate(243,56)"/>
<path d="M0 0 C3.50635473 1.40254189 4.49320677 2.76323672 6.5 6 C10.5 15.5257732 10.5 15.5257732 10.5 19 C7.99502996 20.25248502 6.29146726 20.11374406 3.4921875 20.09765625 C2.50605469 20.09443359 1.51992187 20.09121094 0.50390625 20.08789062 C-0.52863281 20.07951172 -1.56117188 20.07113281 -2.625 20.0625 C-4.18541016 20.05573242 -4.18541016 20.05573242 -5.77734375 20.04882812 C-8.35161962 20.03701952 -10.92578146 20.02055075 -13.5 20 C-13.04480262 18.41408403 -12.58408407 16.8297522 -12.12109375 15.24609375 C-11.86513428 14.3636499 -11.6091748 13.48120605 -11.34545898 12.57202148 C-9.87195034 8.08937245 -7.87746032 4.42189452 -4.5625 1 C-2.5 0 -2.5 0 0 0 Z " fill="#559D08" transform="translate(228.5,175)"/>
<path d="M0 0 C10.34246119 6.83290026 10.34246119 6.83290026 11.5546875 10.828125 C12.27741169 18.63354622 7.6655866 25.42625668 4 32 C3.01 32 2.02 32 1 32 C-0.13917218 28.58248347 -0.11338481 25.96512063 -0.09765625 22.36328125 C-0.09443359 21.06455078 -0.09121094 19.76582031 -0.08789062 18.42773438 C-0.07953531 17.05598892 -0.07107037 15.68424413 -0.0625 14.3125 C-0.05748335 12.92903805 -0.05292073 11.54557437 -0.04882812 10.16210938 C-0.03702529 6.77469605 -0.02056019 3.38736967 0 0 Z " fill="#C20867" transform="translate(131,111)"/>
<path d="M0 0 C13.46272607 -0.37053375 13.46272607 -0.37053375 15.92578125 1.328125 C17.61635843 3.95927784 17.37324586 5.95182549 17 9 C15.5 11.375 15.5 11.375 14 13 C14.3609375 13.48210937 14.721875 13.96421875 15.09375 14.4609375 C15.5578125 15.09257812 16.021875 15.72421875 16.5 16.375 C16.9640625 17.00148438 17.428125 17.62796875 17.90625 18.2734375 C19 20 19 20 19 22 C16.8125 22.5 16.8125 22.5 14 22 C12.59666687 20.0548737 11.49899146 18.01052281 10.3359375 15.9140625 C8.39917289 13.13916583 6.23991062 12.60277407 3 12 C3 15.3 3 18.6 3 22 C2.01 22 1.02 22 0 22 C0 14.74 0 7.48 0 0 Z M3 3 C3 4.98 3 6.96 3 9 C5.97 9 8.94 9 12 9 C12.33 7.35 12.66 5.7 13 4 C10.71294169 2.85647084 9.40735238 2.89665561 6.875 2.9375 C4.956875 2.9684375 4.956875 2.9684375 3 3 Z " fill="#262627" transform="translate(210,268)"/>
<path d="M0 0 C3.0625 2.375 3.0625 2.375 5 5 C5 5.66 5 6.32 5 7 C2.525 6.505 2.525 6.505 0 6 C0 5.34 0 4.68 0 4 C-3.41656024 3.83322718 -3.41656024 3.83322718 -7 4 C-9.19666303 5.77966683 -9.19666303 5.77966683 -9.23046875 8.09375 C-9.21628906 8.8878125 -9.20210938 9.681875 -9.1875 10.5 C-9.18105469 11.2940625 -9.17460938 12.088125 -9.16796875 12.90625 C-9.12675836 15.05836391 -9.12675836 15.05836391 -8 17 C-5.61915122 17.84298574 -5.61915122 17.84298574 -3 18 C0.24849977 16.27773504 0.24849977 16.27773504 1 13 C2.32 13.33 3.64 13.66 5 14 C4.62951193 16.5934165 3.94398898 18.08065587 2.4375 20.25 C-0.41643415 22.29897836 -2.53991067 22.56779351 -6.03125 22.3984375 C-9.10989729 21.77537793 -10.85219078 20.21289435 -13 18 C-14.22485812 15.55028376 -14.16722808 13.85765539 -14.1875 11.125 C-14.20167969 10.26132812 -14.21585937 9.39765625 -14.23046875 8.5078125 C-13.98243618 5.80888187 -13.47382301 4.26214694 -12 2 C-7.9965795 -0.668947 -4.70750028 -0.83267518 0 0 Z " fill="#252526" transform="translate(88,268)"/>
<path d="M0 0 C1.32 0 2.64 0 4 0 C4 1.98 4 3.96 4 6 C5.11375 5.690625 5.11375 5.690625 6.25 5.375 C9.34743429 4.9526226 10.45131221 5.27053328 13 7 C14.73558114 10.47116227 14.45163663 14.20490416 14 18 C12.625 20.5625 12.625 20.5625 10 22 C6.7 22 3.4 22 0 22 C0 14.74 0 7.48 0 0 Z M7 8 C6.01 8.66 5.02 9.32 4 10 C3.74984127 13.58357241 3.74984127 13.58357241 4 17 C5.88316159 18.10836423 5.88316159 18.10836423 8 19 C8.66 18.67 9.32 18.34 10 18 C11.01370127 15.17037671 11.01370127 15.17037671 11 12 C9.18712805 9.60204619 9.18712805 9.60204619 7 8 Z " fill="#252526" transform="translate(278,268)"/>
<path d="M0 0 C2.32891212 3.49336818 2.23551143 4.86007865 2.1953125 8.98046875 C2.18564453 10.72553711 2.18564453 10.72553711 2.17578125 12.50585938 C2.15902344 13.72080078 2.14226562 14.93574219 2.125 16.1875 C2.11597656 17.41404297 2.10695313 18.64058594 2.09765625 19.90429688 C2.07406017 22.93639295 2.04113841 25.96809938 2 29 C-3.12042951 23.97330083 -7.22786498 18.67393992 -7.5625 11.25 C-7.31652363 7.10457477 -6.06353128 4.88847235 -3 2 C-2.01 1.34 -1.02 0.68 0 0 Z " fill="#C20B69" transform="translate(320,106)"/>
<path d="M0 0 C2.85793316 2.85793316 2.40799941 5.14665584 2.625 9.125 C2.69976562 10.40632813 2.77453125 11.68765625 2.8515625 13.0078125 C2.92503906 14.48894531 2.92503906 14.48894531 3 16 C0.87527424 16.05386629 -1.24983652 16.09273071 -3.375 16.125 C-4.55835938 16.14820313 -5.74171875 16.17140625 -6.9609375 16.1953125 C-10 16 -10 16 -12 14 C-11.625 10.375 -11.625 10.375 -11 7 C-10.43410156 6.87882812 -9.86820312 6.75765625 -9.28515625 6.6328125 C-8.55167969 6.46523438 -7.81820313 6.29765625 -7.0625 6.125 C-5.96615234 5.88136719 -5.96615234 5.88136719 -4.84765625 5.6328125 C-2.79299706 5.17038477 -2.79299706 5.17038477 -2 3 C-2.721875 3.144375 -3.44375 3.28875 -4.1875 3.4375 C-8.09375 4.21875 -8.09375 4.21875 -12 5 C-11.1875 2.5625 -11.1875 2.5625 -10 0 C-6.25976024 -1.24674659 -3.83399823 -0.76679965 0 0 Z M-7 9 C-7 10.32 -7 11.64 -7 13 C-5.01508358 12.73323796 -5.01508358 12.73323796 -3 12 C-2.67 11.01 -2.34 10.02 -2 9 C-3.65 9 -5.3 9 -7 9 Z " fill="#232324" transform="translate(333,274)"/>
<path d="M0 0 C0.99 0 1.98 0 3 0 C3 7.26 3 14.52 3 22 C-7 22 -7 22 -9.625 19.9375 C-11.36064272 16.22953601 -11.65097682 14.05052242 -11 10 C-8.875 7 -8.875 7 -6 5 C-2.6875 5.1875 -2.6875 5.1875 0 6 C0 4.02 0 2.04 0 0 Z M-6 9 C-7.41577477 10.18424326 -7.41577477 10.18424326 -7.0625 13.5625 C-7.041875 14.696875 -7.02125 15.83125 -7 17 C-5.02 17.99 -5.02 17.99 -3 19 C-1.31318262 17.89958081 -1.31318262 17.89958081 0 16 C-0.23283149 12.85078091 -0.23283149 12.85078091 -1 10 C-2.65614657 9.61781233 -4.32457024 9.28604898 -6 9 Z " fill="#252526" transform="translate(179,268)"/>
<path d="M0 0 C1.65 0 3.3 0 5 0 C4.34 1.65 3.68 3.3 3 5 C3.804375 5.309375 4.60875 5.61875 5.4375 5.9375 C8.3066339 8.2468029 8.5384581 8.88478534 9.125 12.375 C9.33574145 16.06598602 9.10444035 16.8449219 6.9375 20.0625 C3.51380695 22.32068052 2.01464553 22.76876191 -2 22 C-4.375 20.5625 -4.375 20.5625 -6 18 C-6.49269345 14.93312169 -6.62344409 12.04982109 -6 9 C-4.59765625 7.22265625 -4.59765625 7.22265625 -3 6 C-2.34 6 -1.68 6 -1 6 C-0.67 4.02 -0.34 2.04 0 0 Z M-1 9 C-3.29637779 11.75895635 -3.29637779 11.75895635 -2.75 14.5625 C-2.16191948 17.15000567 -2.16191948 17.15000567 0 19 C2.78237655 18.59471099 2.78237655 18.59471099 5 17 C5.24733137 12.85723125 5.24733137 12.85723125 4 9 C1.58380177 8.74969023 1.58380177 8.74969023 -1 9 Z " fill="#252525" transform="translate(364,268)"/>
<path d="M0 0 C1.875 1.75 1.875 1.75 3 4 C3 5.65 3 7.3 3 9 C-0.63 9 -4.26 9 -8 9 C-7.01 10.485 -7.01 10.485 -6 12 C-5.443125 11.855625 -4.88625 11.71125 -4.3125 11.5625 C-1.88615805 10.97230872 0.54906345 10.476571 3 10 C1.25 14.875 1.25 14.875 -1 16 C-4.95342702 16.5271236 -6.56877682 16.2844238 -9.9375 14.0625 C-12.46052297 10.31619317 -12.48226558 8.37835842 -11.70703125 4.03125 C-11 2 -11 2 -8.8125 -0.125 C-5.35152019 -1.20174927 -3.44308284 -1.1227444 0 0 Z M-5 2 C-6.02104551 2.97850195 -7.0206121 3.97980427 -8 5 C-8 5.33 -8 5.66 -8 6 C-5.69 6 -3.38 6 -1 6 C-1.33 5.01 -1.66 4.02 -2 3 C-2.99 2.67 -3.98 2.34 -5 2 Z " fill="#252526" transform="translate(241,274)"/>
<path d="M0 0 C1.875 1.75 1.875 1.75 3 4 C3 5.65 3 7.3 3 9 C-0.63 9 -4.26 9 -8 9 C-7.01 10.485 -7.01 10.485 -6 12 C-5.443125 11.855625 -4.88625 11.71125 -4.3125 11.5625 C-1.88615805 10.97230872 0.54906345 10.476571 3 10 C1.25 14.875 1.25 14.875 -1 16 C-4.95342702 16.5271236 -6.56877682 16.2844238 -9.9375 14.0625 C-12.46052297 10.31619317 -12.48226558 8.37835842 -11.70703125 4.03125 C-11 2 -11 2 -8.8125 -0.125 C-5.35152019 -1.20174927 -3.44308284 -1.1227444 0 0 Z M-5 2 C-6.02104551 2.97850195 -7.0206121 3.97980427 -8 5 C-8 5.33 -8 5.66 -8 6 C-5.69 6 -3.38 6 -1 6 C-1.33 5.01 -1.66 4.02 -2 3 C-2.99 2.67 -3.98 2.34 -5 2 Z " fill="#252526" transform="translate(106,274)"/>
<path d="M0 0 C1.875 1.75 1.875 1.75 3 4 C3 5.65 3 7.3 3 9 C-0.63 9 -4.26 9 -8 9 C-7.01 10.485 -7.01 10.485 -6 12 C-5.443125 11.855625 -4.88625 11.71125 -4.3125 11.5625 C-1.88615805 10.97230872 0.54906345 10.476571 3 10 C1.25 14.875 1.25 14.875 -1 16 C-4.16956698 16.27561452 -6.37553788 16.27003767 -9.3125 15 C-11.8443054 11.99934175 -12.20030937 8.80587808 -12 5 C-10.75 2.0625 -10.75 2.0625 -9 0 C-5.4314543 -1.18951523 -3.60804584 -0.97717908 0 0 Z M-5 2 C-6.02104551 2.97850195 -7.0206121 3.97980427 -8 5 C-8 5.33 -8 5.66 -8 6 C-5.69 6 -3.38 6 -1 6 C-1.33 5.01 -1.66 4.02 -2 3 C-2.99 2.67 -3.98 2.34 -5 2 Z " fill="#252526" transform="translate(196,274)"/>
<path d="M0 0 C1.99616554 1.99616554 1.40983427 5.81701963 1.5625 8.5625 C1.60568359 9.27341797 1.64886719 9.98433594 1.69335938 10.71679688 C1.79971777 12.47761912 1.90038846 14.2387832 2 16 C0.06318839 16.08107583 -1.8745934 16.13922475 -3.8125 16.1875 C-4.89144531 16.22230469 -5.97039062 16.25710938 -7.08203125 16.29296875 C-10 16 -10 16 -11.89453125 14.6484375 C-13 13 -13 13 -12.875 10.4375 C-12 8 -12 8 -9 6 C-7.0103005 5.60986284 -5.00980131 5.26797351 -3 5 C-5.67642489 2.81509993 -5.67642489 2.81509993 -8 3 C-8 3.66 -8 4.32 -8 5 C-9.32 5 -10.64 5 -12 5 C-11.66260373 2.469528 -11.3938922 1.3181437 -9.375 -0.3125 C-6.02725822 -1.28158315 -3.3741144 -0.70028789 0 0 Z M-9 10 C-8.67 10.99 -8.34 11.98 -8 13 C-6.35 12.67 -4.7 12.34 -3 12 C-2.67 11.01 -2.34 10.02 -2 9 C-5.62885324 8.84850702 -5.62885324 8.84850702 -9 10 Z " fill="#252526" transform="translate(274,274)"/>
<path d="M0 0 C1.32 0 2.64 0 4 0 C4 1.98 4 3.96 4 6 C4.928125 5.79375 5.85625 5.5875 6.8125 5.375 C10 5 10 5 13 7 C13.22137393 9.62697064 13.28162025 12.00893964 13.1875 14.625 C13.17396484 15.33140625 13.16042969 16.0378125 13.14648438 16.765625 C13.1111104 18.51074128 13.05730221 20.25546608 13 22 C12.01 22 11.02 22 10 22 C9.67 18.04 9.34 14.08 9 10 C7.68 10 6.36 10 5 10 C4.67 13.96 4.34 17.92 4 22 C2.68 22 1.36 22 0 22 C0 14.74 0 7.48 0 0 Z " fill="#262627" transform="translate(246,268)"/>
<path d="M0 0 C2.16623148 1.8051929 2.85535392 3.13033778 3.31640625 5.90234375 C3.52097565 9.4460136 3.34556057 11.44710309 1.4375 14.5 C-1.94888329 16.58392818 -4.09385318 16.55802097 -8 16 C-10.4375 14.5 -10.4375 14.5 -12 12 C-12.70054531 8.11515783 -12.56879257 5.05632906 -10.6875 1.5625 C-7.2705337 -1.60135768 -4.24801161 -1.15050314 0 0 Z M-5 2 C-5.99 2.66 -6.98 3.32 -8 4 C-8.41666667 7.5 -8.41666667 7.5 -8 11 C-7.34 11.66 -6.68 12.32 -6 13 C-3.21762345 12.59471099 -3.21762345 12.59471099 -1 11 C-0.95907063 8.66702567 -0.95758277 6.33294775 -1 4 C-2.32 3.34 -3.64 2.68 -5 2 Z " fill="#252526" transform="translate(156,274)"/>
<path d="M0 0 C2 2 2 2 2.1953125 5.2578125 C2.16050781 7.17207031 2.16050781 7.17207031 2.125 9.125 C2.10695313 10.40632813 2.08890625 11.68765625 2.0703125 13.0078125 C2.04710937 13.99523437 2.02390625 14.98265625 2 16 C0.68 16 -0.64 16 -2 16 C-2 11.71 -2 7.42 -2 3 C-3.65 3.66 -5.3 4.32 -7 5 C-7.33 8.63 -7.66 12.26 -8 16 C-8.99 16 -9.98 16 -11 16 C-11 10.72 -11 5.44 -11 0 C-6.49409249 -0.9011815 -4.31331799 -1.05436662 0 0 Z " fill="#262627" transform="translate(386,274)"/>
<path d="M0 0 C1 1 1 1 1.09765625 4.37890625 C1.09098369 5.77347077 1.07902532 7.16801743 1.0625 8.5625 C1.05798828 9.27341797 1.05347656 9.98433594 1.04882812 10.71679688 C1.03700864 12.47790013 1.01907263 14.23896036 1 16 C0.01 16 -0.98 16 -2 16 C-2.33 12.04 -2.66 8.08 -3 4 C-4.32 4 -5.64 4 -7 4 C-7.33 7.96 -7.66 11.92 -8 16 C-9.32 16 -10.64 16 -12 16 C-12 10.72 -12 5.44 -12 0 C-7.04404782 -0.82599203 -4.65062239 -1.08154009 0 0 Z " fill="#262627" transform="translate(123,274)"/>
<path d="M0 0 C2.475 0.99 2.475 0.99 5 2 C4.3503125 3.32451172 4.3503125 3.32451172 3.6875 4.67578125 C0.09435856 12.30827123 -1.94897405 18.38893915 -1 27 C-4.77545388 25.90931332 -7.47043472 25.0916909 -10 22 C-9.39542969 21.17113281 -8.79085937 20.34226563 -8.16796875 19.48828125 C-5.79179625 15.92454612 -4.54878555 12.26207456 -3.3125 8.1875 C-1.10330579 1.10330579 -1.10330579 1.10330579 0 0 Z " fill="#C30F6A" transform="translate(191,186)"/>
<path d="M0 0 C1.375 2.5625 1.375 2.5625 2 5 C0.68 5 -0.64 5 -2 5 C-2 4.34 -2 3.68 -2 3 C-3.65 3.33 -5.3 3.66 -7 4 C-7 6.31 -7 8.62 -7 11 C-5.68 11.33 -4.36 11.66 -3 12 C-2.34 11.01 -1.68 10.02 -1 9 C-0.01 9 0.98 9 2 9 C1.6875 11.375 1.6875 11.375 1 14 C-2.49565336 16.33043558 -3.8865729 16.58763244 -8 16 C-11.1741318 13.24351712 -11.9238874 11.61977402 -12.4375 7.4375 C-11.98462662 3.87920917 -11.55248298 2.45794657 -9 0 C-5.4268387 -1.19105377 -3.59356359 -1.0704232 0 0 Z " fill="#252526" transform="translate(349,274)"/>
<path d="M0 0 C0 1.98 0 3.96 0 6 C0.66 6 1.32 6 2 6 C2 6.99 2 7.98 2 9 C1.34 9 0.68 9 0 9 C0 11.97 0 14.94 0 18 C0.66 18 1.32 18 2 18 C2.33 19.32 2.66 20.64 3 22 C0.625 22.125 0.625 22.125 -2 22 C-4 20 -4 20 -4.1953125 17.3984375 C-4.17210937 16.40070313 -4.14890625 15.40296875 -4.125 14.375 C-4.10695313 13.37210937 -4.08890625 12.36921875 -4.0703125 11.3359375 C-4.04710937 10.56507813 -4.02390625 9.79421875 -4 9 C-4.66 9 -5.32 9 -6 9 C-6 8.01 -6 7.02 -6 6 C-5.34 6 -4.68 6 -4 6 C-3.87625 5.195625 -3.7525 4.39125 -3.625 3.5625 C-3.41875 2.716875 -3.2125 1.87125 -3 1 C-1 0 -1 0 0 0 Z " fill="#252526" transform="translate(318,268)"/>
<path d="M0 0 C0.33 0 0.66 0 1 0 C1 1.98 1 3.96 1 6 C1.99 6 2.98 6 4 6 C4 6.99 4 7.98 4 9 C3.01 9 2.02 9 1 9 C1 11.97 1 14.94 1 18 C1.99 18 2.98 18 4 18 C4 19.32 4 20.64 4 22 C2.33388095 22.042721 0.66617115 22.04063832 -1 22 C-2 21 -2 21 -2.09765625 18.27734375 C-2.08605469 17.17519531 -2.07445313 16.07304687 -2.0625 14.9375 C-2.05347656 13.83277344 -2.04445313 12.72804688 -2.03515625 11.58984375 C-2.02355469 10.73519531 -2.01195313 9.88054687 -2 9 C-2.66 9 -3.32 9 -4 9 C-4 8.01 -4 7.02 -4 6 C-3.34 6 -2.68 6 -2 6 C-1.855625 5.195625 -1.71125 4.39125 -1.5625 3.5625 C-1 1 -1 1 0 0 Z " fill="#252526" transform="translate(130,268)"/>
<path d="M0 0 C0 0.99 0 1.98 0 3 C-1.32 3.33 -2.64 3.66 -4 4 C-4.33 7.96 -4.66 11.92 -5 16 C-6.32 16 -7.64 16 -9 16 C-9 10.72 -9 5.44 -9 0 C-3.375 -1.125 -3.375 -1.125 0 0 Z " fill="#252527" transform="translate(144,274)"/>
<path d="M0 0 C6.36482413 5.87014868 11.09165325 13.63366776 12.55078125 22.25390625 C12.72178859 29.01319649 12.72178859 29.01319649 10.69140625 31.7890625 C7.96194762 33.74317838 5.24009096 33.18340137 2 33 C2.598125 32.71125 3.19625 32.4225 3.8125 32.125 C6.19327792 30.95257974 6.19327792 30.95257974 9 29 C10.64625856 21.09795891 8.21204092 14.59846636 4 8 C2.679762 6.32294092 1.35156675 4.65191491 0 3 C0 2.01 0 1.02 0 0 Z " fill="#CDCDD0" transform="translate(346,162)"/>
<path d="M0 0 C0.99 0 1.98 0 3 0 C3 7.26 3 14.52 3 22 C2.01 22 1.02 22 0 22 C0 14.74 0 7.48 0 0 Z " fill="#272728" transform="translate(301,268)"/>
<path d="M0 0 C1.32 0 2.64 0 4 0 C4 5.28 4 10.56 4 16 C2.68 16 1.36 16 0 16 C0 10.72 0 5.44 0 0 Z " fill="#262628" transform="translate(352,274)"/>
<path d="M0 0 C1.32 0 2.64 0 4 0 C4 5.28 4 10.56 4 16 C2.68 16 1.36 16 0 16 C0 10.72 0 5.44 0 0 Z " fill="#272728" transform="translate(307,274)"/>
<path d="M0 0 C1.32 0 2.64 0 4 0 C4 5.28 4 10.56 4 16 C2.68 16 1.36 16 0 16 C0 10.72 0 5.44 0 0 Z " fill="#262627" transform="translate(294,274)"/>
<path d="M0 0 C-0.95098266 1.98270912 -1.91100703 3.96108379 -2.875 5.9375 C-3.40867187 7.03964844 -3.94234375 8.14179688 -4.4921875 9.27734375 C-6 12 -6 12 -8 13 C-8.27615058 11.40012764 -8.52007625 9.794667 -8.75 8.1875 C-8.88921875 7.29417969 -9.0284375 6.40085938 -9.171875 5.48046875 C-9 3 -9 3 -7.328125 1.17578125 C-4.66692472 -0.16821419 -2.94217129 -0.24518094 0 0 Z " fill="#5D9D13" transform="translate(291,153)"/>
<path d="M0 0 C2.875 -0.125 2.875 -0.125 6 0 C8 2 8 2 8.1953125 4.1640625 C8.17210937 4.97617188 8.14890625 5.78828125 8.125 6.625 C8.10695312 7.44226563 8.08890625 8.25953125 8.0703125 9.1015625 C8.03550781 10.04128906 8.03550781 10.04128906 8 11 C7.01 11.495 7.01 11.495 6 12 C4.99466333 10.37829621 3.99588093 8.75252763 3 7.125 C2.443125 6.22007812 1.88625 5.31515625 1.3125 4.3828125 C0 2 0 2 0 0 Z " fill="#5D9B13" transform="translate(163,155)"/>
<path d="M0 0 C2.31 0 4.62 0 7 0 C7 2.64 7 5.28 7 8 C4.69 8 2.38 8 0 8 C0 5.36 0 2.72 0 0 Z " fill="#272728" transform="translate(454,337)"/>
<path d="M0 0 C2.31 0 4.62 0 7 0 C7 2.64 7 5.28 7 8 C4.69 8 2.38 8 0 8 C0 5.36 0 2.72 0 0 Z " fill="#272728" transform="translate(423,337)"/>
<path d="M0 0 C0.33 0.99 0.66 1.98 1 3 C-0.21484375 5.26953125 -0.21484375 5.26953125 -1.9375 7.8125 C-5.19984497 12.99934781 -5.19984497 12.99934781 -5 19 C-4.04451019 20.95625978 -4.04451019 20.95625978 -2 22 C1.61023099 22.73041853 1.61023099 22.73041853 5 23 C4.34 23.66 3.68 24.32 3 25 C-1.15311567 24.72914463 -4.07299742 24.03541008 -7 21 C-8.48943234 17.52465788 -7.9562986 15.85190082 -6.875 12.1875 C-5.08364717 7.81326635 -2.63223707 3.91194126 0 0 Z " fill="#C0C1C3" transform="translate(110,170)"/>
<path d="M0 0 C2.60527105 -0.10792837 5.20608311 -0.18724878 7.8125 -0.25 C8.55048828 -0.28351563 9.28847656 -0.31703125 10.04882812 -0.3515625 C15.49506382 -0.4501369 15.49506382 -0.4501369 18.015625 1.796875 C19.53104834 5.18853677 18.94566951 7.46950049 18 11 C15.9375 13.4375 15.9375 13.4375 14 15 C14.33 14.113125 14.66 13.22625 15 12.3125 C15.92372607 9.2526574 16.43753684 7.15026528 16 4 C12.47844036 1.65229357 10.49228157 1.62330386 6.3125 1.375 C4.54326172 1.26285156 4.54326172 1.26285156 2.73828125 1.1484375 C1.83464844 1.09945312 0.93101562 1.05046875 0 1 C0 0.67 0 0.34 0 0 Z " fill="#D1D2D4" transform="translate(347,69)"/>
<path d="M0 0 C0.680625 0.804375 1.36125 1.60875 2.0625 2.4375 C5.48477302 5.42288711 7.5428126 5.73781251 12 6 C11.34 6.66 10.68 7.32 10 8 C5.86400709 7.73026133 2.91897768 7.03124605 0 4 C0 2.68 0 1.36 0 0 Z " fill="#D3D4D6" transform="translate(103,187)"/>
<path d="M0 0 C1.32 0 2.64 0 4 0 C4 1.32 4 2.64 4 4 C2.68 4 1.36 4 0 4 C0 2.68 0 1.36 0 0 Z " fill="#272727" transform="translate(352,268)"/>
<path d="M0 0 C1.32 0 2.64 0 4 0 C4 1.32 4 2.64 4 4 C2.68 4 1.36 4 0 4 C0 2.68 0 1.36 0 0 Z " fill="#262627" transform="translate(307,268)"/>
<path d="M0 0 C1.32 0 2.64 0 4 0 C4 1.32 4 2.64 4 4 C2.68 4 1.36 4 0 4 C0 2.68 0 1.36 0 0 Z " fill="#262626" transform="translate(294,268)"/>
</svg>
